<?xml version="1.0" encoding="UTF-8"?>
<svg width="256px" height="58px" viewBox="0 0 256 58" version="1.1" xmlns="http://www.w3.org/2000/svg" xmlns:xlink="http://www.w3.org/1999/xlink">
    <!-- Generator: sketchtool 53.1 (72631) - https://sketchapp.com -->
    <title>B828D0C2-065C-4746-BCF3-CF527A03C830@1x</title>
    <desc>Created with sketchtool.</desc>
    <g id="Site" stroke="none" stroke-width="1" fill="none" fill-rule="evenodd">
        <g id="Site---000---Main-page" transform="translate(-120.000000, -103.000000)">
            <g id="HEADER" transform="translate(0.000000, 78.000000)">
                <g id="header---content" transform="translate(32.000000, 25.000000)">
                    <g id="UnstoppableDomains-logo" transform="translate(88.000000, 0.000000)">
                        <path d="M88.646,25.308 C86.3579886,25.308 84.579673,24.6846729 83.311,23.438 C82.042327,22.1913271 81.408,20.4240114 81.408,18.136 L81.408,9.6 L85.764,9.6 L85.764,18.004 C85.764,20.4680123 86.7393236,21.7 88.69,21.7 C90.6260097,21.7 91.594,20.4680123 91.594,18.004 L91.594,9.6 L95.884,9.6 L95.884,18.136 C95.884,20.4240114 95.249673,22.1913271 93.981,23.438 C92.712327,24.6846729 90.9340114,25.308 88.646,25.308 Z M113.484,9.6 L113.484,25 L109.898,25 L103.1,16.794 L103.1,25 L98.832,25 L98.832,9.6 L102.418,9.6 L109.216,17.806 L109.216,9.6 L113.484,9.6 Z M121.976,25.308 C120.729327,25.308 119.519339,25.1540015 118.346,24.846 C117.172661,24.5379985 116.219337,24.1273359 115.486,23.614 L116.916,20.402 C117.605337,20.8566689 118.404662,21.2233319 119.314,21.502 C120.223338,21.7806681 121.117996,21.92 121.998,21.92 C123.670008,21.92 124.506,21.5020042 124.506,20.666 C124.506,20.2259978 124.267669,19.8996677 123.791,19.687 C123.314331,19.4743323 122.548005,19.2506678 121.492,19.016 C120.333328,18.7666654 119.365337,18.4990014 118.588,18.213 C117.810663,17.9269986 117.143336,17.4686698 116.586,16.838 C116.028664,16.2073302 115.75,15.356672 115.75,14.286 C115.75,13.3473286 116.006664,12.5003371 116.52,11.745 C117.033336,10.9896629 117.799662,10.3920022 118.819,9.952 C119.838338,9.5119978 121.088659,9.292 122.57,9.292 C123.582005,9.292 124.579328,9.40566553 125.562,9.633 C126.544672,9.86033447 127.409996,10.1939978 128.158,10.634 L126.816,13.868 C125.349326,13.075996 123.926674,12.68 122.548,12.68 C121.682662,12.68 121.052002,12.808332 120.656,13.065 C120.259998,13.3216679 120.062,13.6553313 120.062,14.066 C120.062,14.4766687 120.296664,14.7846656 120.766,14.99 C121.235336,15.1953344 121.990661,15.4079989 123.032,15.628 C124.205339,15.8773346 125.176996,16.1449986 125.947,16.431 C126.717004,16.7170014 127.384331,17.1716636 127.949,17.795 C128.513669,18.4183365 128.796,19.265328 128.796,20.336 C128.796,21.2600046 128.539336,22.0959963 128.026,22.844 C127.512664,23.5920037 126.742672,24.1896644 125.716,24.637 C124.689328,25.0843356 123.442674,25.308 121.976,25.308 Z M134.076,13.054 L129.346,13.054 L129.346,9.6 L143.14,9.6 L143.14,13.054 L138.432,13.054 L138.432,25 L134.076,25 L134.076,13.054 Z M152.534,25.308 C150.905992,25.308 149.443006,24.9633368 148.145,24.274 C146.846994,23.5846632 145.82767,22.6313394 145.087,21.414 C144.34633,20.1966606 143.976,18.825341 143.976,17.3 C143.976,15.774659 144.34633,14.4033394 145.087,13.186 C145.82767,11.9686606 146.846994,11.0153368 148.145,10.326 C149.443006,9.63666322 150.905992,9.292 152.534,9.292 C154.162008,9.292 155.624994,9.63666322 156.923,10.326 C158.221006,11.0153368 159.24033,11.9686606 159.981,13.186 C160.72167,14.4033394 161.092,15.774659 161.092,17.3 C161.092,18.825341 160.72167,20.1966606 159.981,21.414 C159.24033,22.6313394 158.221006,23.5846632 156.923,24.274 C155.624994,24.9633368 154.162008,25.308 152.534,25.308 Z M152.534,21.7 C153.311337,21.7 154.01533,21.5166685 154.646,21.15 C155.27667,20.7833315 155.775331,20.2663367 156.142,19.599 C156.508668,18.9316633 156.692,18.1653377 156.692,17.3 C156.692,16.4346623 156.508668,15.6683367 156.142,15.001 C155.775331,14.3336633 155.27667,13.8166685 154.646,13.45 C154.01533,13.0833315 153.311337,12.9 152.534,12.9 C151.756663,12.9 151.05267,13.0833315 150.422,13.45 C149.79133,13.8166685 149.292668,14.3336633 148.926,15.001 C148.559332,15.6683367 148.376,16.4346623 148.376,17.3 C148.376,18.1653377 148.559332,18.9316633 148.926,19.599 C149.292668,20.2663367 149.79133,20.7833315 150.422,21.15 C151.05267,21.5166685 151.756663,21.7 152.534,21.7 Z M170.42,9.6 C171.81334,9.6 173.023328,9.83099769 174.05,10.293 C175.076672,10.7550023 175.868664,11.4149957 176.426,12.273 C176.983336,13.1310043 177.262,14.1393275 177.262,15.298 C177.262,16.4566725 176.983336,17.4613291 176.426,18.312 C175.868664,19.1626709 175.076672,19.8189977 174.05,20.281 C173.023328,20.7430023 171.81334,20.974 170.42,20.974 L167.736,20.974 L167.736,25 L163.38,25 L163.38,9.6 L170.42,9.6 Z M170.156,17.542 C171.050671,17.542 171.725331,17.3476686 172.18,16.959 C172.634669,16.5703314 172.862,16.0166703 172.862,15.298 C172.862,14.5793297 172.634669,14.022002 172.18,13.626 C171.725331,13.229998 171.050671,13.032 170.156,13.032 L167.736,13.032 L167.736,17.542 L170.156,17.542 Z M186.634,9.6 C188.02734,9.6 189.237328,9.83099769 190.264,10.293 C191.290672,10.7550023 192.082664,11.4149957 192.64,12.273 C193.197336,13.1310043 193.476,14.1393275 193.476,15.298 C193.476,16.4566725 193.197336,17.4613291 192.64,18.312 C192.082664,19.1626709 191.290672,19.8189977 190.264,20.281 C189.237328,20.7430023 188.02734,20.974 186.634,20.974 L183.95,20.974 L183.95,25 L179.594,25 L179.594,9.6 L186.634,9.6 Z M186.37,17.542 C187.264671,17.542 187.939331,17.3476686 188.394,16.959 C188.848669,16.5703314 189.076,16.0166703 189.076,15.298 C189.076,14.5793297 188.848669,14.022002 188.394,13.626 C187.939331,13.229998 187.264671,13.032 186.37,13.032 L183.95,13.032 L183.95,17.542 L186.37,17.542 Z M206.126,22.008 L199.614,22.008 L198.404,25 L193.96,25 L200.758,9.6 L205.048,9.6 L211.868,25 L207.336,25 L206.126,22.008 Z M204.85,18.796 L202.87,13.868 L200.89,18.796 L204.85,18.796 Z M224.936,16.97 C225.816004,17.2780015 226.505331,17.7583301 227.004,18.411 C227.502669,19.0636699 227.752,19.8519954 227.752,20.776 C227.752,22.1253401 227.209339,23.166663 226.124,23.9 C225.038661,24.633337 223.469344,25 221.416,25 L213.1,25 L213.1,9.6 L220.976,9.6 C222.941343,9.6 224.437328,9.96299637 225.464,10.689 C226.490672,11.4150036 227.004,12.3939938 227.004,13.626 C227.004,14.359337 226.824335,15.0156638 226.465,15.595 C226.105665,16.1743362 225.596003,16.632665 224.936,16.97 Z M217.412,12.746 L217.412,15.716 L220.404,15.716 C221.870674,15.716 222.604,15.2173383 222.604,14.22 C222.604,13.2373284 221.870674,12.746 220.404,12.746 L217.412,12.746 Z M221.064,21.854 C222.589341,21.854 223.352,21.3333385 223.352,20.292 C223.352,19.2506615 222.589341,18.73 221.064,18.73 L217.412,18.73 L217.412,21.854 L221.064,21.854 Z M230.018,9.6 L234.374,9.6 L234.374,21.546 L241.722,21.546 L241.722,25 L230.018,25 L230.018,9.6 Z M255.802,21.634 L255.802,25 L243.438,25 L243.438,9.6 L255.516,9.6 L255.516,12.966 L247.75,12.966 L247.75,15.562 L254.592,15.562 L254.592,18.818 L247.75,18.818 L247.75,21.634 L255.802,21.634 Z M81.54,33.6 L88.822,33.6 C90.5086751,33.6 92.0046601,33.9153302 93.31,34.546 C94.6153399,35.1766698 95.6273297,36.0713275 96.346,37.23 C97.0646703,38.3886725 97.424,39.7453256 97.424,41.3 C97.424,42.8546744 97.0646703,44.2113275 96.346,45.37 C95.6273297,46.5286725 94.6153399,47.4233302 93.31,48.054 C92.0046601,48.6846698 90.5086751,49 88.822,49 L81.54,49 L81.54,33.6 Z M88.646,45.524 C89.9660066,45.524 91.0256627,45.1500037 91.825,44.402 C92.6243373,43.6539963 93.024,42.6200066 93.024,41.3 C93.024,39.9799934 92.6243373,38.9460037 91.825,38.198 C91.0256627,37.4499963 89.9660066,37.076 88.646,37.076 L85.896,37.076 L85.896,45.524 L88.646,45.524 Z M107.478,49.308 C105.849992,49.308 104.387006,48.9633368 103.089,48.274 C101.790994,47.5846632 100.77167,46.6313394 100.031,45.414 C99.2903296,44.1966606 98.92,42.825341 98.92,41.3 C98.92,39.774659 99.2903296,38.4033394 100.031,37.186 C100.77167,35.9686606 101.790994,35.0153368 103.089,34.326 C104.387006,33.6366632 105.849992,33.292 107.478,33.292 C109.106008,33.292 110.568994,33.6366632 111.867,34.326 C113.165006,35.0153368 114.18433,35.9686606 114.925,37.186 C115.66567,38.4033394 116.036,39.774659 116.036,41.3 C116.036,42.825341 115.66567,44.1966606 114.925,45.414 C114.18433,46.6313394 113.165006,47.5846632 111.867,48.274 C110.568994,48.9633368 109.106008,49.308 107.478,49.308 Z M107.478,45.7 C108.255337,45.7 108.95933,45.5166685 109.59,45.15 C110.22067,44.7833315 110.719332,44.2663367 111.086,43.599 C111.452669,42.9316633 111.636,42.1653377 111.636,41.3 C111.636,40.4346623 111.452669,39.6683367 111.086,39.001 C110.719332,38.3336633 110.22067,37.8166685 109.59,37.45 C108.95933,37.0833315 108.255337,36.9 107.478,36.9 C106.700663,36.9 105.99667,37.0833315 105.366,37.45 C104.73533,37.8166685 104.236669,38.3336633 103.87,39.001 C103.503332,39.6683367 103.32,40.4346623 103.32,41.3 C103.32,42.1653377 103.503332,42.9316633 103.87,43.599 C104.236669,44.2663367 104.73533,44.7833315 105.366,45.15 C105.99667,45.5166685 106.700663,45.7 107.478,45.7 Z M132.228,49 L132.184,40.838 L128.224,47.482 L126.288,47.482 L122.35,41.058 L122.35,49 L118.324,49 L118.324,33.6 L121.91,33.6 L127.322,42.488 L132.602,33.6 L136.188,33.6 L136.232,49 L132.228,49 Z M149.63,46.008 L143.118,46.008 L141.908,49 L137.464,49 L144.262,33.6 L148.552,33.6 L155.372,49 L150.84,49 L149.63,46.008 Z M148.354,42.796 L146.374,37.868 L144.394,42.796 L148.354,42.796 Z M156.604,33.6 L160.96,33.6 L160.96,49 L156.604,49 L156.604,33.6 Z M178.714,33.6 L178.714,49 L175.128,49 L168.33,40.794 L168.33,49 L164.062,49 L164.062,33.6 L167.648,33.6 L174.446,41.806 L174.446,33.6 L178.714,33.6 Z M187.206,49.308 C185.959327,49.308 184.749339,49.1540015 183.576,48.846 C182.402661,48.5379985 181.449337,48.1273359 180.716,47.614 L182.146,44.402 C182.835337,44.8566689 183.634662,45.2233319 184.544,45.502 C185.453338,45.7806681 186.347996,45.92 187.228,45.92 C188.900008,45.92 189.736,45.5020042 189.736,44.666 C189.736,44.2259978 189.497669,43.8996677 189.021,43.687 C188.544331,43.4743323 187.778005,43.2506678 186.722,43.016 C185.563328,42.7666654 184.595337,42.4990014 183.818,42.213 C183.040663,41.9269986 182.373336,41.4686698 181.816,40.838 C181.258664,40.2073302 180.98,39.356672 180.98,38.286 C180.98,37.3473286 181.236664,36.5003371 181.75,35.745 C182.263336,34.9896629 183.029662,34.3920022 184.049,33.952 C185.068338,33.5119978 186.318659,33.292 187.8,33.292 C188.812005,33.292 189.809328,33.4056655 190.792,33.633 C191.774672,33.8603345 192.639996,34.1939978 193.388,34.634 L192.046,37.868 C190.579326,37.075996 189.156674,36.68 187.778,36.68 C186.912662,36.68 186.282002,36.8083321 185.886,37.065 C185.489998,37.321668 185.292,37.6553313 185.292,38.066 C185.292,38.4766687 185.526664,38.7846656 185.996,38.99 C186.465336,39.1953344 187.220661,39.4079989 188.262,39.628 C189.435339,39.8773346 190.406996,40.1449986 191.177,40.431 C191.947004,40.7170014 192.614331,41.1716636 193.179,41.795 C193.743669,42.4183364 194.026,43.265328 194.026,44.336 C194.026,45.2600046 193.769336,46.0959963 193.256,46.844 C192.742664,47.5920037 191.972672,48.1896644 190.946,48.637 C189.919328,49.0843356 188.672674,49.308 187.206,49.308 Z" id="UNSTOPPABLEDOMAINS" fill="#010617" fill-rule="nonzero"></path>
                        <g id="sign">
                            <polygon id="Rectangle-Copy-3" fill="#2FE9FF" points="64 1 64 23 -3.41060513e-13 49"></polygon>
                            <path d="M52,-1.77635684e-14 L52,38 C52,49.045695 43.045695,58 32,58 C20.954305,58 12,49.045695 12,38 L12,22 L24,15.4 L24,38 C24,41.8659932 27.1340068,45 31,45 C34.8659932,45 38,41.8659932 38,38 L38,7.7 L52,-1.77635684e-14 Z" id="Rectangle-2" fill="#4C47F7"></path>
                        </g>
                    </g>
                </g>
            </g>
        </g>
    </g>
</svg>